<svg width="528" height="39" viewBox="0 0 528 39" fill="none" xmlns="http://www.w3.org/2000/svg">
<path d="M4.77273 7.72727L0.909091 31H0.181818L4.04545 7.72727H4.77273ZM10.3182 19.2727L8.36364 31H7.63636L10.5455 13.5455H11.2727L10.8182 16.3182H10.9091C11.4545 15.4091 12.2424 14.6818 13.2727 14.1364C14.3106 13.5909 15.4318 13.3182 16.6364 13.3182C17.803 13.3182 18.7917 13.572 19.6023 14.0795C20.4129 14.5871 20.9962 15.2879 21.3523 16.1818C21.7083 17.0758 21.7879 18.1061 21.5909 19.2727L19.6364 31H18.9091L20.8636 19.2727C21.1136 17.7273 20.8485 16.4697 20.0682 15.5C19.2955 14.5303 18.1364 14.0455 16.5909 14.0455C15.5606 14.0455 14.5985 14.2689 13.7045 14.7159C12.8182 15.1629 12.072 15.7803 11.4659 16.5682C10.8674 17.3561 10.4848 18.2576 10.3182 19.2727ZM38.5511 17.2273L37.8239 17.3636C37.7027 16.6061 37.4754 15.9811 37.142 15.4886C36.8087 14.9886 36.3655 14.6174 35.8125 14.375C35.267 14.125 34.6042 14 33.8239 14C32.3996 14 31.1913 14.3674 30.1989 15.1023C29.2064 15.8371 28.6117 16.7879 28.4148 17.9545C28.2708 18.8561 28.4337 19.6061 28.9034 20.2045C29.3807 20.803 30.1875 21.25 31.3239 21.5455L33.9602 22.2273C35.1875 22.5455 36.0663 23.0985 36.5966 23.8864C37.1345 24.6667 37.3163 25.5985 37.142 26.6818C36.9905 27.6288 36.6117 28.4545 36.0057 29.1591C35.3996 29.8561 34.6307 30.3977 33.6989 30.7841C32.7746 31.1705 31.7405 31.3636 30.5966 31.3636C29.036 31.3636 27.8201 30.9811 26.9489 30.2159C26.0852 29.4508 25.6193 28.3636 25.5511 26.9545L26.2784 26.8636C26.3239 28.0909 26.714 29.0265 27.4489 29.6705C28.1837 30.3144 29.233 30.6364 30.5966 30.6364C32.142 30.6364 33.4564 30.2538 34.5398 29.4886C35.6231 28.7159 36.2633 27.7197 36.4602 26.5C36.6042 25.6061 36.4451 24.8598 35.983 24.2614C35.5208 23.6629 34.7557 23.2273 33.6875 22.9545L31.0966 22.2727C29.8011 21.9318 28.8617 21.3712 28.2784 20.5909C27.7027 19.8106 27.5057 18.8712 27.6875 17.7727C27.839 16.8712 28.1951 16.0833 28.7557 15.4091C29.3163 14.7348 30.0284 14.2121 30.892 13.8409C31.7633 13.4621 32.7254 13.2727 33.7784 13.2727C35.1496 13.2727 36.2367 13.6098 37.0398 14.2841C37.8428 14.9508 38.3466 15.9318 38.5511 17.2273ZM40.5369 37.5455L44.5369 13.5455H45.2642L44.5369 18H44.6278C45.0975 17.0303 45.6695 16.1932 46.3438 15.4886C47.0256 14.7765 47.7869 14.2311 48.6278 13.8523C49.4763 13.4659 50.3703 13.2727 51.3097 13.2727C52.6884 13.2727 53.8134 13.6667 54.6847 14.4545C55.5634 15.2424 56.1619 16.3182 56.4801 17.6818C56.8059 19.0455 56.8248 20.5909 56.5369 22.3182C56.2491 24.0303 55.7112 25.5682 54.9233 26.9318C54.143 28.2955 53.1847 29.375 52.0483 30.1705C50.9195 30.9659 49.6733 31.3636 48.3097 31.3636C47.3854 31.3636 46.5634 31.1742 45.8438 30.7955C45.1241 30.4091 44.5369 29.8636 44.0824 29.1591C43.6278 28.447 43.3248 27.6061 43.1733 26.6364H43.0824L41.2642 37.5455H40.5369ZM43.8097 22.3182C43.5521 23.8939 43.5521 25.3106 43.8097 26.5682C44.0672 27.8182 44.5748 28.8106 45.3324 29.5455C46.09 30.2727 47.0824 30.6364 48.3097 30.6364C49.5369 30.6364 50.6695 30.2727 51.7074 29.5455C52.7453 28.8106 53.6241 27.8182 54.3438 26.5682C55.0634 25.3106 55.5521 23.8939 55.8097 22.3182C56.0672 20.7424 56.0672 19.3295 55.8097 18.0795C55.5521 16.822 55.0483 15.8295 54.2983 15.1023C53.5483 14.3674 52.5521 14 51.3097 14C50.0824 14 48.946 14.3674 47.9006 15.1023C46.8551 15.8295 45.9763 16.822 45.2642 18.0795C44.5521 19.3295 44.0672 20.7424 43.8097 22.3182ZM60.321 31L63.2301 13.5455H63.9574L61.0483 31H60.321ZM64.1619 10.3636C63.9347 10.3636 63.7528 10.2841 63.6165 10.125C63.4877 9.96591 63.4422 9.77273 63.4801 9.54545C63.5104 9.38636 63.6013 9.24242 63.7528 9.11364C63.9044 8.97727 64.071 8.90909 64.2528 8.90909C64.4801 8.90909 64.6581 8.98864 64.7869 9.14773C64.9233 9.30682 64.9725 9.5 64.9347 9.72727C64.9044 9.89394 64.8134 10.0417 64.6619 10.1705C64.5104 10.2992 64.3438 10.3636 64.1619 10.3636ZM67.3239 31L70.233 13.5455H70.9602L70.5057 16.3182H70.5966C71.142 15.4091 71.9299 14.6818 72.9602 14.1364C73.9981 13.5909 75.1193 13.3182 76.3239 13.3182C76.4148 13.3182 76.4754 13.3182 76.5057 13.3182C76.536 13.3182 76.5966 13.3182 76.6875 13.3182L76.5511 14.0455C76.4602 14.0455 76.3996 14.0455 76.3693 14.0455C76.339 14.0455 76.2784 14.0455 76.1875 14.0455C75.1572 14.0455 74.2027 14.2689 73.3239 14.7159C72.4527 15.1629 71.7216 15.7803 71.1307 16.5682C70.5473 17.3561 70.1723 18.2576 70.0057 19.2727L68.0511 31H67.3239ZM83.6989 31.3636C82.1686 31.3636 80.8996 30.9659 79.892 30.1705C78.8845 29.375 78.1799 28.2955 77.7784 26.9318C77.3769 25.5682 77.3201 24.0303 77.608 22.3182C77.8958 20.6061 78.4678 19.0682 79.3239 17.7045C80.1799 16.3409 81.2178 15.2614 82.4375 14.4659C83.6572 13.6705 84.9564 13.2727 86.3352 13.2727C87.3504 13.2727 88.2519 13.4924 89.0398 13.9318C89.8352 14.3636 90.4905 14.9621 91.0057 15.7273C91.5284 16.4848 91.8883 17.3636 92.0852 18.3636C92.2822 19.3561 92.2898 20.4167 92.108 21.5455L91.9716 22.2727H77.9716L78.108 21.5455H91.3807C91.608 20.1515 91.536 18.8864 91.1648 17.75C90.8011 16.6061 90.1989 15.697 89.358 15.0227C88.5246 14.3409 87.517 14 86.3352 14C85.1383 14 83.9867 14.3561 82.8807 15.0682C81.7746 15.7803 80.8201 16.75 80.017 17.9773C79.214 19.2045 78.6686 20.5909 78.3807 22.1364L78.3352 22.1818C78.0777 23.7121 78.1042 25.1174 78.4148 26.3977C78.7254 27.678 79.3239 28.7045 80.2102 29.4773C81.0966 30.25 82.2746 30.6364 83.7443 30.6364C84.8049 30.6364 85.7367 30.447 86.5398 30.0682C87.3504 29.6894 88.0246 29.2538 88.5625 28.7614C89.108 28.2689 89.517 27.8485 89.7898 27.5L90.2898 27.9091C89.9716 28.3485 89.5133 28.8371 88.9148 29.375C88.3163 29.9129 87.5814 30.3788 86.7102 30.7727C85.839 31.1667 84.8352 31.3636 83.6989 31.3636ZM101.304 31.3636C99.9252 31.3636 98.7964 30.9697 97.9176 30.1818C97.0388 29.3864 96.4366 28.3068 96.1108 26.9432C95.7926 25.5795 95.7737 24.0379 96.054 22.3182C96.3419 20.6061 96.8759 19.0682 97.6562 17.7045C98.4366 16.3409 99.3949 15.2614 100.531 14.4659C101.675 13.6705 102.925 13.2727 104.281 13.2727C105.213 13.2727 106.035 13.4659 106.747 13.8523C107.467 14.2311 108.054 14.7765 108.509 15.4886C108.971 16.1932 109.274 17.0303 109.418 18H109.509L111.213 7.72727H111.94L108.077 31H107.349L108.077 26.6364H107.986C107.509 27.5985 106.925 28.4356 106.236 29.1477C105.554 29.8523 104.793 30.3977 103.952 30.7841C103.118 31.1705 102.236 31.3636 101.304 31.3636ZM101.304 30.6364C102.539 30.6364 103.675 30.2727 104.713 29.5455C105.751 28.8106 106.622 27.8182 107.327 26.5682C108.039 25.3106 108.524 23.8939 108.781 22.3182C109.046 20.7424 109.046 19.3295 108.781 18.0795C108.524 16.822 108.016 15.8295 107.259 15.1023C106.501 14.3674 105.509 14 104.281 14C103.054 14 101.921 14.3674 100.884 15.1023C99.8456 15.8295 98.9669 16.822 98.2472 18.0795C97.535 19.3295 97.0464 20.7424 96.7812 22.3182C96.5237 23.8939 96.5237 25.3106 96.7812 26.5682C97.0464 27.8182 97.5578 28.8106 98.3153 29.5455C99.0729 30.2727 100.069 30.6364 101.304 30.6364ZM124.338 31L128.202 7.72727H128.929L127.247 18H127.338C127.793 17.0303 128.365 16.1932 129.054 15.4886C129.743 14.7765 130.512 14.2311 131.361 13.8523C132.209 13.4659 133.096 13.2727 134.02 13.2727C135.384 13.2727 136.505 13.6705 137.384 14.4659C138.262 15.2614 138.865 16.3409 139.19 17.7045C139.516 19.0682 139.535 20.6061 139.247 22.3182C138.959 24.0303 138.429 25.5682 137.656 26.9318C136.884 28.2955 135.929 29.375 134.793 30.1705C133.656 30.9659 132.399 31.3636 131.02 31.3636C130.08 31.3636 129.251 31.1742 128.531 30.7955C127.819 30.4091 127.236 29.8636 126.781 29.1591C126.334 28.447 126.035 27.6061 125.884 26.6364H125.793L125.065 31H124.338ZM126.52 22.3182C126.262 23.8939 126.259 25.3106 126.509 26.5682C126.766 27.8182 127.27 28.8106 128.02 29.5455C128.777 30.2727 129.777 30.6364 131.02 30.6364C132.247 30.6364 133.38 30.2727 134.418 29.5455C135.463 28.8106 136.342 27.8182 137.054 26.5682C137.774 25.3106 138.262 23.8939 138.52 22.3182C138.777 20.7424 138.774 19.3295 138.509 18.0795C138.251 16.822 137.743 15.8295 136.986 15.1023C136.236 14.3674 135.247 14 134.02 14C132.793 14 131.656 14.3674 130.611 15.1023C129.573 15.8295 128.694 16.822 127.974 18.0795C127.262 19.3295 126.777 20.7424 126.52 22.3182ZM141.997 37.5455C141.702 37.5455 141.395 37.5038 141.077 37.4205C140.766 37.3447 140.452 37.2348 140.134 37.0909L140.497 36.4545C141.164 36.7803 141.812 36.8902 142.44 36.7841C143.077 36.6856 143.675 36.3864 144.236 35.8864C144.796 35.3939 145.3 34.7197 145.747 33.8636L147.111 31.2727L143.747 13.5455H144.474L147.634 30.0909H147.724L156.384 13.5455H157.202L146.406 34.1818C146.02 34.9167 145.588 35.5341 145.111 36.0341C144.641 36.5341 144.141 36.9091 143.611 37.1591C143.08 37.4167 142.543 37.5455 141.997 37.5455ZM181.011 37.5455V27.1932H180.875C180.61 27.9508 180.223 28.6477 179.716 29.2841C179.208 29.9129 178.583 30.4167 177.841 30.7955C177.098 31.1742 176.231 31.3636 175.239 31.3636C173.845 31.3636 172.625 30.9773 171.58 30.2045C170.542 29.4242 169.731 28.3561 169.148 27C168.572 25.6364 168.284 24.0758 168.284 22.3182C168.284 20.5606 168.572 19.0038 169.148 17.6477C169.723 16.2841 170.534 15.2159 171.58 14.4432C172.625 13.6705 173.848 13.2841 175.25 13.2841C176.258 13.2841 177.129 13.4773 177.864 13.8636C178.598 14.2424 179.216 14.7462 179.716 15.375C180.216 16.0038 180.602 16.6932 180.875 17.4432H181.045V13.5455H182.386V37.5455H181.011ZM175.364 30.0795C176.538 30.0795 177.545 29.7424 178.386 29.0682C179.235 28.3864 179.886 27.4621 180.341 26.2955C180.795 25.1212 181.023 23.7917 181.023 22.3068C181.023 20.822 180.799 19.5 180.352 18.3409C179.905 17.1742 179.258 16.2576 178.409 15.5909C177.561 14.9167 176.545 14.5795 175.364 14.5795C174.159 14.5795 173.133 14.9205 172.284 15.6023C171.436 16.2765 170.784 17.197 170.33 18.3636C169.883 19.5303 169.659 20.8447 169.659 22.3068C169.659 23.7689 169.886 25.0871 170.341 26.2614C170.795 27.4356 171.447 28.3674 172.295 29.0568C173.144 29.7386 174.167 30.0795 175.364 30.0795ZM188.224 31V13.5455H189.599V31H188.224ZM188.918 10.4545C188.615 10.4545 188.349 10.3485 188.122 10.1364C187.902 9.92424 187.793 9.66667 187.793 9.36364C187.793 9.06061 187.902 8.80303 188.122 8.59091C188.342 8.37879 188.607 8.27273 188.918 8.27273C189.221 8.27273 189.482 8.37879 189.702 8.59091C189.929 8.80303 190.043 9.06061 190.043 9.36364C190.043 9.66667 189.933 9.92424 189.713 10.1364C189.493 10.3485 189.228 10.4545 188.918 10.4545ZM206.497 17.3068L205.213 17.6477C205.009 17.0114 204.717 16.4621 204.338 16C203.959 15.5379 203.482 15.1818 202.906 14.9318C202.338 14.6742 201.656 14.5455 200.861 14.5455C199.58 14.5455 198.531 14.8636 197.713 15.5C196.902 16.1364 196.497 16.9659 196.497 17.9886C196.497 18.822 196.774 19.5114 197.327 20.0568C197.88 20.5947 198.724 21.0038 199.861 21.2841L202.543 21.9545C203.921 22.2955 204.959 22.8485 205.656 23.6136C206.353 24.3712 206.702 25.3144 206.702 26.4432C206.702 27.4053 206.44 28.2576 205.918 29C205.395 29.7424 204.671 30.322 203.747 30.7386C202.83 31.1553 201.762 31.3636 200.543 31.3636C198.914 31.3636 197.577 30.9848 196.531 30.2273C195.486 29.4621 194.815 28.3674 194.52 26.9432L195.849 26.6023C196.099 27.7386 196.618 28.6061 197.406 29.2045C198.202 29.7955 199.243 30.0909 200.531 30.0909C201.955 30.0909 203.103 29.7538 203.974 29.0795C204.853 28.4053 205.293 27.5417 205.293 26.4886C205.293 25.6856 205.035 25.0076 204.52 24.4545C204.005 23.9015 203.224 23.4962 202.179 23.2386L199.395 22.5568C197.971 22.2083 196.902 21.6515 196.19 20.8864C195.478 20.1136 195.122 19.1629 195.122 18.0341C195.122 17.0947 195.368 16.2689 195.861 15.5568C196.353 14.8447 197.031 14.2879 197.895 13.8864C198.759 13.4848 199.747 13.2841 200.861 13.2841C202.338 13.2841 203.543 13.6326 204.474 14.3295C205.406 15.0265 206.08 16.0189 206.497 17.3068ZM212.705 24.1818L212.682 22.1932H213.045L221.773 13.5455H223.58L215.568 21.5L215.432 21.5568L212.705 24.1818ZM211.5 31V7.72727H212.886V31H211.5ZM222.17 31L214.807 21.6932L215.807 20.7727L223.943 31H222.17ZM227.756 31V13.5455H229.131V31H227.756ZM228.449 10.4545C228.146 10.4545 227.881 10.3485 227.653 10.1364C227.434 9.92424 227.324 9.66667 227.324 9.36364C227.324 9.06061 227.434 8.80303 227.653 8.59091C227.873 8.37879 228.138 8.27273 228.449 8.27273C228.752 8.27273 229.013 8.37879 229.233 8.59091C229.46 8.80303 229.574 9.06061 229.574 9.36364C229.574 9.66667 229.464 9.92424 229.244 10.1364C229.025 10.3485 228.759 10.4545 228.449 10.4545ZM241.108 13.5455V14.7841H233.483V13.5455H241.108ZM236.062 9.36364H237.438V26.875C237.438 27.5871 237.574 28.1705 237.847 28.625C238.127 29.072 238.491 29.4053 238.938 29.625C239.392 29.8371 239.877 29.9432 240.392 29.9432C240.642 29.9432 240.858 29.9242 241.04 29.8864C241.229 29.8485 241.407 29.7992 241.574 29.7386L241.915 31C241.703 31.0758 241.468 31.1402 241.21 31.1932C240.953 31.2538 240.65 31.2841 240.301 31.2841C239.574 31.2841 238.884 31.1212 238.233 30.7955C237.589 30.4697 237.066 29.9962 236.665 29.375C236.263 28.7538 236.062 28.0038 236.062 27.125V9.36364ZM257.648 0.227272V38.5H256.409V0.227272H257.648ZM272.869 31L276.733 7.72727H283.551C284.854 7.72727 285.96 8.01894 286.869 8.60227C287.778 9.17803 288.434 9.98106 288.835 11.0114C289.237 12.0341 289.324 13.2121 289.097 14.5455C288.884 15.8636 288.407 17.0341 287.665 18.0568C286.922 19.072 285.998 19.8712 284.892 20.4545C283.786 21.0303 282.581 21.3182 281.278 21.3182H274.824L274.96 20.5909H281.415C282.581 20.5909 283.653 20.3333 284.631 19.8182C285.616 19.303 286.434 18.5909 287.085 17.6818C287.744 16.7727 288.172 15.7273 288.369 14.5455C288.566 13.3485 288.487 12.2917 288.131 11.375C287.775 10.4583 287.191 9.74242 286.381 9.22727C285.57 8.71212 284.581 8.45454 283.415 8.45454H277.324L273.597 31H272.869ZM297.724 31.3636C296.346 31.3636 295.171 30.9659 294.202 30.1705C293.24 29.375 292.55 28.2879 292.134 26.9091C291.724 25.5303 291.664 23.9697 291.952 22.2273C292.24 20.5303 292.808 19.0076 293.656 17.6591C294.512 16.303 295.543 15.2348 296.747 14.4545C297.959 13.6667 299.24 13.2727 300.588 13.2727C301.982 13.2727 303.16 13.6742 304.122 14.4773C305.092 15.2803 305.781 16.3712 306.19 17.75C306.607 19.1288 306.679 20.6818 306.406 22.4091C306.118 24.1061 305.546 25.6326 304.69 26.9886C303.834 28.3371 302.8 29.4053 301.588 30.1932C300.376 30.9735 299.088 31.3636 297.724 31.3636ZM297.724 30.6364C298.982 30.6364 300.168 30.2727 301.281 29.5455C302.395 28.8106 303.342 27.8106 304.122 26.5455C304.902 25.2727 305.421 23.8333 305.679 22.2273C305.937 20.6667 305.887 19.2652 305.531 18.0227C305.175 16.7803 304.573 15.7992 303.724 15.0795C302.876 14.3598 301.846 14 300.634 14C299.391 14 298.213 14.3712 297.099 15.1136C295.986 15.8485 295.035 16.8523 294.247 18.125C293.459 19.3902 292.937 20.8182 292.679 22.4091C292.406 23.9697 292.448 25.3712 292.804 26.6136C293.168 27.8561 293.774 28.8371 294.622 29.5568C295.478 30.2765 296.512 30.6364 297.724 30.6364ZM313.207 31L310.935 13.5455H311.662L313.798 30H313.889L321.526 13.5455H322.253L324.435 30H324.526L332.116 13.5455H332.935L324.844 31H323.844L321.707 14.9545H321.616L314.207 31H313.207ZM340.668 31.3636C339.137 31.3636 337.868 30.9659 336.861 30.1705C335.853 29.375 335.149 28.2955 334.747 26.9318C334.346 25.5682 334.289 24.0303 334.577 22.3182C334.865 20.6061 335.437 19.0682 336.293 17.7045C337.149 16.3409 338.187 15.2614 339.406 14.4659C340.626 13.6705 341.925 13.2727 343.304 13.2727C344.319 13.2727 345.221 13.4924 346.009 13.9318C346.804 14.3636 347.459 14.9621 347.974 15.7273C348.497 16.4848 348.857 17.3636 349.054 18.3636C349.251 19.3561 349.259 20.4167 349.077 21.5455L348.94 22.2727H334.94L335.077 21.5455H348.349C348.577 20.1515 348.505 18.8864 348.134 17.75C347.77 16.6061 347.168 15.697 346.327 15.0227C345.493 14.3409 344.486 14 343.304 14C342.107 14 340.955 14.3561 339.849 15.0682C338.743 15.7803 337.789 16.75 336.986 17.9773C336.183 19.2045 335.637 20.5909 335.349 22.1364L335.304 22.1818C335.046 23.7121 335.073 25.1174 335.384 26.3977C335.694 27.678 336.293 28.7045 337.179 29.4773C338.065 30.25 339.243 30.6364 340.713 30.6364C341.774 30.6364 342.705 30.447 343.509 30.0682C344.319 29.6894 344.993 29.2538 345.531 28.7614C346.077 28.2689 346.486 27.8485 346.759 27.5L347.259 27.9091C346.94 28.3485 346.482 28.8371 345.884 29.375C345.285 29.9129 344.55 30.3788 343.679 30.7727C342.808 31.1667 341.804 31.3636 340.668 31.3636ZM352.636 31L355.545 13.5455H356.273L355.818 16.3182H355.909C356.455 15.4091 357.242 14.6818 358.273 14.1364C359.311 13.5909 360.432 13.3182 361.636 13.3182C361.727 13.3182 361.788 13.3182 361.818 13.3182C361.848 13.3182 361.909 13.3182 362 13.3182L361.864 14.0455C361.773 14.0455 361.712 14.0455 361.682 14.0455C361.652 14.0455 361.591 14.0455 361.5 14.0455C360.47 14.0455 359.515 14.2689 358.636 14.7159C357.765 15.1629 357.034 15.7803 356.443 16.5682C355.86 17.3561 355.485 18.2576 355.318 19.2727L353.364 31H352.636ZM369.011 31.3636C367.481 31.3636 366.212 30.9659 365.205 30.1705C364.197 29.375 363.492 28.2955 363.091 26.9318C362.689 25.5682 362.633 24.0303 362.92 22.3182C363.208 20.6061 363.78 19.0682 364.636 17.7045C365.492 16.3409 366.53 15.2614 367.75 14.4659C368.97 13.6705 370.269 13.2727 371.648 13.2727C372.663 13.2727 373.564 13.4924 374.352 13.9318C375.148 14.3636 375.803 14.9621 376.318 15.7273C376.841 16.4848 377.201 17.3636 377.398 18.3636C377.595 19.3561 377.602 20.4167 377.42 21.5455L377.284 22.2727H363.284L363.42 21.5455H376.693C376.92 20.1515 376.848 18.8864 376.477 17.75C376.114 16.6061 375.511 15.697 374.67 15.0227C373.837 14.3409 372.83 14 371.648 14C370.451 14 369.299 14.3561 368.193 15.0682C367.087 15.7803 366.133 16.75 365.33 17.9773C364.527 19.2045 363.981 20.5909 363.693 22.1364L363.648 22.1818C363.39 23.7121 363.417 25.1174 363.727 26.3977C364.038 27.678 364.636 28.7045 365.523 29.4773C366.409 30.25 367.587 30.6364 369.057 30.6364C370.117 30.6364 371.049 30.447 371.852 30.0682C372.663 29.6894 373.337 29.2538 373.875 28.7614C374.42 28.2689 374.83 27.8485 375.102 27.5L375.602 27.9091C375.284 28.3485 374.826 28.8371 374.227 29.375C373.629 29.9129 372.894 30.3788 372.023 30.7727C371.152 31.1667 370.148 31.3636 369.011 31.3636ZM386.616 31.3636C385.238 31.3636 384.109 30.9697 383.23 30.1818C382.351 29.3864 381.749 28.3068 381.423 26.9432C381.105 25.5795 381.086 24.0379 381.366 22.3182C381.654 20.6061 382.188 19.0682 382.969 17.7045C383.749 16.3409 384.707 15.2614 385.844 14.4659C386.988 13.6705 388.238 13.2727 389.594 13.2727C390.526 13.2727 391.348 13.4659 392.06 13.8523C392.779 14.2311 393.366 14.7765 393.821 15.4886C394.283 16.1932 394.586 17.0303 394.73 18H394.821L396.526 7.72727H397.253L393.389 31H392.662L393.389 26.6364H393.298C392.821 27.5985 392.238 28.4356 391.548 29.1477C390.866 29.8523 390.105 30.3977 389.264 30.7841C388.431 31.1705 387.548 31.3636 386.616 31.3636ZM386.616 30.6364C387.851 30.6364 388.988 30.2727 390.026 29.5455C391.063 28.8106 391.935 27.8182 392.639 26.5682C393.351 25.3106 393.836 23.8939 394.094 22.3182C394.359 20.7424 394.359 19.3295 394.094 18.0795C393.836 16.822 393.329 15.8295 392.571 15.1023C391.813 14.3674 390.821 14 389.594 14C388.366 14 387.234 14.3674 386.196 15.1023C385.158 15.8295 384.279 16.822 383.56 18.0795C382.848 19.3295 382.359 20.7424 382.094 22.3182C381.836 23.8939 381.836 25.3106 382.094 26.5682C382.359 27.8182 382.87 28.8106 383.628 29.5455C384.385 30.2727 385.382 30.6364 386.616 30.6364ZM409.651 31L413.514 7.72727H414.241L412.56 18H412.651C413.105 17.0303 413.677 16.1932 414.366 15.4886C415.056 14.7765 415.825 14.2311 416.673 13.8523C417.522 13.4659 418.408 13.2727 419.332 13.2727C420.696 13.2727 421.817 13.6705 422.696 14.4659C423.575 15.2614 424.177 16.3409 424.503 17.7045C424.829 19.0682 424.848 20.6061 424.56 22.3182C424.272 24.0303 423.741 25.5682 422.969 26.9318C422.196 28.2955 421.241 29.375 420.105 30.1705C418.969 30.9659 417.711 31.3636 416.332 31.3636C415.393 31.3636 414.563 31.1742 413.844 30.7955C413.132 30.4091 412.548 29.8636 412.094 29.1591C411.647 28.447 411.348 27.6061 411.196 26.6364H411.105L410.378 31H409.651ZM411.832 22.3182C411.575 23.8939 411.571 25.3106 411.821 26.5682C412.079 27.8182 412.582 28.8106 413.332 29.5455C414.09 30.2727 415.09 30.6364 416.332 30.6364C417.56 30.6364 418.692 30.2727 419.73 29.5455C420.776 28.8106 421.654 27.8182 422.366 26.5682C423.086 25.3106 423.575 23.8939 423.832 22.3182C424.09 20.7424 424.086 19.3295 423.821 18.0795C423.563 16.822 423.056 15.8295 422.298 15.1023C421.548 14.3674 420.56 14 419.332 14C418.105 14 416.969 14.3674 415.923 15.1023C414.885 15.8295 414.007 16.822 413.287 18.0795C412.575 19.3295 412.09 20.7424 411.832 22.3182ZM427.31 37.5455C427.014 37.5455 426.707 37.5038 426.389 37.4205C426.079 37.3447 425.764 37.2348 425.446 37.0909L425.81 36.4545C426.476 36.7803 427.124 36.8902 427.753 36.7841C428.389 36.6856 428.988 36.3864 429.548 35.8864C430.109 35.3939 430.613 34.7197 431.06 33.8636L432.423 31.2727L429.06 13.5455H429.787L432.946 30.0909H433.037L441.696 13.5455H442.514L431.719 34.1818C431.332 34.9167 430.901 35.5341 430.423 36.0341C429.954 36.5341 429.454 36.9091 428.923 37.1591C428.393 37.4167 427.855 37.5455 427.31 37.5455ZM466.324 37.5455V27.1932H466.188C465.922 27.9508 465.536 28.6477 465.028 29.2841C464.521 29.9129 463.896 30.4167 463.153 30.7955C462.411 31.1742 461.544 31.3636 460.551 31.3636C459.157 31.3636 457.938 30.9773 456.892 30.2045C455.854 29.4242 455.044 28.3561 454.46 27C453.884 25.6364 453.597 24.0758 453.597 22.3182C453.597 20.5606 453.884 19.0038 454.46 17.6477C455.036 16.2841 455.847 15.2159 456.892 14.4432C457.938 13.6705 459.161 13.2841 460.562 13.2841C461.57 13.2841 462.441 13.4773 463.176 13.8636C463.911 14.2424 464.528 14.7462 465.028 15.375C465.528 16.0038 465.915 16.6932 466.188 17.4432H466.358V13.5455H467.699V37.5455H466.324ZM460.676 30.0795C461.85 30.0795 462.858 29.7424 463.699 29.0682C464.547 28.3864 465.199 27.4621 465.653 26.2955C466.108 25.1212 466.335 23.7917 466.335 22.3068C466.335 20.822 466.112 19.5 465.665 18.3409C465.218 17.1742 464.57 16.2576 463.722 15.5909C462.873 14.9167 461.858 14.5795 460.676 14.5795C459.472 14.5795 458.445 14.9205 457.597 15.6023C456.748 16.2765 456.097 17.197 455.642 18.3636C455.195 19.5303 454.972 20.8447 454.972 22.3068C454.972 23.7689 455.199 25.0871 455.653 26.2614C456.108 27.4356 456.759 28.3674 457.608 29.0568C458.456 29.7386 459.479 30.0795 460.676 30.0795ZM473.537 31V13.5455H474.912V31H473.537ZM474.23 10.4545C473.927 10.4545 473.662 10.3485 473.435 10.1364C473.215 9.92424 473.105 9.66667 473.105 9.36364C473.105 9.06061 473.215 8.80303 473.435 8.59091C473.654 8.37879 473.92 8.27273 474.23 8.27273C474.533 8.27273 474.795 8.37879 475.014 8.59091C475.241 8.80303 475.355 9.06061 475.355 9.36364C475.355 9.66667 475.245 9.92424 475.026 10.1364C474.806 10.3485 474.541 10.4545 474.23 10.4545ZM491.81 17.3068L490.526 17.6477C490.321 17.0114 490.029 16.4621 489.651 16C489.272 15.5379 488.795 15.1818 488.219 14.9318C487.651 14.6742 486.969 14.5455 486.173 14.5455C484.893 14.5455 483.844 14.8636 483.026 15.5C482.215 16.1364 481.81 16.9659 481.81 17.9886C481.81 18.822 482.086 19.5114 482.639 20.0568C483.192 20.5947 484.037 21.0038 485.173 21.2841L487.855 21.9545C489.234 22.2955 490.272 22.8485 490.969 23.6136C491.666 24.3712 492.014 25.3144 492.014 26.4432C492.014 27.4053 491.753 28.2576 491.23 29C490.707 29.7424 489.984 30.322 489.06 30.7386C488.143 31.1553 487.075 31.3636 485.855 31.3636C484.226 31.3636 482.889 30.9848 481.844 30.2273C480.798 29.4621 480.128 28.3674 479.832 26.9432L481.162 26.6023C481.412 27.7386 481.931 28.6061 482.719 29.2045C483.514 29.7955 484.556 30.0909 485.844 30.0909C487.268 30.0909 488.416 29.7538 489.287 29.0795C490.166 28.4053 490.605 27.5417 490.605 26.4886C490.605 25.6856 490.348 25.0076 489.832 24.4545C489.317 23.9015 488.537 23.4962 487.491 23.2386L484.707 22.5568C483.283 22.2083 482.215 21.6515 481.503 20.8864C480.791 20.1136 480.435 19.1629 480.435 18.0341C480.435 17.0947 480.681 16.2689 481.173 15.5568C481.666 14.8447 482.344 14.2879 483.207 13.8864C484.071 13.4848 485.06 13.2841 486.173 13.2841C487.651 13.2841 488.855 13.6326 489.787 14.3295C490.719 15.0265 491.393 16.0189 491.81 17.3068ZM498.017 24.1818L497.994 22.1932H498.358L507.085 13.5455H508.892L500.881 21.5L500.744 21.5568L498.017 24.1818ZM496.812 31V7.72727H498.199V31H496.812ZM507.483 31L500.119 21.6932L501.119 20.7727L509.256 31H507.483ZM513.068 31V13.5455H514.443V31H513.068ZM513.761 10.4545C513.458 10.4545 513.193 10.3485 512.966 10.1364C512.746 9.92424 512.636 9.66667 512.636 9.36364C512.636 9.06061 512.746 8.80303 512.966 8.59091C513.186 8.37879 513.451 8.27273 513.761 8.27273C514.064 8.27273 514.326 8.37879 514.545 8.59091C514.773 8.80303 514.886 9.06061 514.886 9.36364C514.886 9.66667 514.777 9.92424 514.557 10.1364C514.337 10.3485 514.072 10.4545 513.761 10.4545ZM526.42 13.5455V14.7841H518.795V13.5455H526.42ZM521.375 9.36364H522.75V26.875C522.75 27.5871 522.886 28.1705 523.159 28.625C523.439 29.072 523.803 29.4053 524.25 29.625C524.705 29.8371 525.189 29.9432 525.705 29.9432C525.955 29.9432 526.17 29.9242 526.352 29.8864C526.542 29.8485 526.72 29.7992 526.886 29.7386L527.227 31C527.015 31.0758 526.78 31.1402 526.523 31.1932C526.265 31.2538 525.962 31.2841 525.614 31.2841C524.886 31.2841 524.197 31.1212 523.545 30.7955C522.902 30.4697 522.379 29.9962 521.977 29.375C521.576 28.7538 521.375 28.0038 521.375 27.125V9.36364Z" fill="black"/>
</svg>
